<svg width="30" height="30" viewBox="0 0 30 30" fill="none" xmlns="http://www.w3.org/2000/svg">
<circle cx="15" cy="15" r="15" fill="#4C71F1"/>
<g clip-path="url(#clip0_913_1255)">
<g clip-path="url(#clip1_913_1255)">
<path d="M16.8932 15.7031L15.3281 15.1328L13.4479 20.2917H8.70833C8.2474 20.2917 7.875 20.6641 7.875 21.125C7.875 21.5859 8.2474 21.9583 8.70833 21.9583H22.0417C22.5026 21.9583 22.875 21.5859 22.875 21.125C22.875 20.6641 22.5026 20.2917 22.0417 20.2917H15.2214L16.8906 15.7031H16.8932ZM20.0469 15.6979L19.9609 15.9349L21.724 16.5755C22.1953 16.7474 22.7135 16.4661 22.7552 15.9661C22.9245 13.9219 22.1328 11.9167 20.651 10.5365C20.7031 10.7448 20.7344 10.9609 20.7396 11.1823L20.7448 11.3385C20.7917 12.8229 20.5547 14.3021 20.0469 15.6979ZM19.9062 11.2057C19.8776 10.3099 19.3203 9.51823 18.4896 9.1901C18.4661 9.17969 18.4401 9.17188 18.4167 9.16146C17.5573 8.85677 16.599 9.09896 15.9922 9.78125L15.888 9.89844C14.9688 10.9245 14.2552 12.1198 13.7812 13.4167L13.6953 13.6536L19.1771 15.6484L19.263 15.4115C19.7344 14.1146 19.9557 12.7422 19.9115 11.362L19.9062 11.2057ZM10.6667 11.5651C10.3776 11.974 10.5938 12.5234 11.0651 12.6953L12.9141 13.3672L13 13.1302C13.5078 11.7344 14.2786 10.4479 15.2682 9.34115L15.3724 9.22396C15.5339 9.04427 15.7135 8.88542 15.9062 8.75C13.8333 8.8151 11.8776 9.84896 10.6667 11.5625V11.5651Z" fill="white"/>
</g>
</g>
<defs>
<clipPath id="clip0_913_1255">
<rect width="15" height="15" fill="white" transform="translate(7.875 8.625)"/>
</clipPath>
<clipPath id="clip1_913_1255">
<rect width="15" height="13.3333" fill="white" transform="translate(7.875 8.625)"/>
</clipPath>
</defs>
</svg>
