<svg width="30" height="30" viewBox="0 0 30 30" fill="none" xmlns="http://www.w3.org/2000/svg">
<circle cx="15" cy="15" r="15" fill="#4C71F1"/>
<g clip-path="url(#clip0_913_1209)">
<g clip-path="url(#clip1_913_1209)">
<path d="M17.0156 14.5371C17.0156 14.0273 17.2852 13.5645 17.5986 13.1602C17.9678 12.6826 18.1875 12.085 18.1875 11.4375C18.1875 9.88477 16.9277 8.625 15.375 8.625C13.8223 8.625 12.5625 9.88477 12.5625 11.4375C12.5625 12.085 12.7822 12.6826 13.1514 13.1602C13.4648 13.5645 13.7344 14.0273 13.7344 14.5371C13.7344 15.4131 13.0225 16.125 12.1465 16.125H11.1562C9.34277 16.125 7.875 17.5928 7.875 19.4062C7.875 20.0186 8.26758 20.54 8.8125 20.7334V22.2188C8.8125 22.9951 9.44238 23.625 10.2188 23.625H20.5312C21.3076 23.625 21.9375 22.9951 21.9375 22.2188V20.7334C22.4824 20.54 22.875 20.0186 22.875 19.4062C22.875 17.5928 21.4072 16.125 19.5938 16.125H18.6035C17.7275 16.125 17.0156 15.4131 17.0156 14.5371ZM20.0625 20.8125V21.75H10.6875V20.8125H20.0625Z" fill="white"/>
</g>
</g>
<defs>
<clipPath id="clip0_913_1209">
<rect width="15" height="15" fill="white" transform="translate(7.875 8.625)"/>
</clipPath>
<clipPath id="clip1_913_1209">
<rect width="15" height="15" fill="white" transform="translate(7.875 8.625)"/>
</clipPath>
</defs>
</svg>
