<svg width="30" height="30" viewBox="0 0 30 30" fill="none" xmlns="http://www.w3.org/2000/svg">
<g clip-path="url(#clip0_901_735)">
<path d="M3.33333 4.06667C3.33333 3.14479 2.58854 2.4 1.66667 2.4C0.744792 2.4 0 3.14479 0 4.06667V9.06667V22.4C0 24.2385 1.49479 25.7333 3.33333 25.7333H13.3333V22.4H3.33333V10.7333H13.3333V7.4H3.33333V4.06667ZM15 12.4C15 13.3219 15.7448 14.0667 16.6667 14.0667H28.3333C29.2552 14.0667 30 13.3219 30 12.4V5.73333C30 4.81146 29.2552 4.06667 28.3333 4.06667H23.1927C22.75 4.06667 22.3281 3.88958 22.0156 3.57708L21.3229 2.88958C21.0104 2.57708 20.5885 2.4 20.1458 2.4H16.6667C15.7448 2.4 15 3.14479 15 4.06667V12.4ZM15 27.4C15 28.3219 15.7448 29.0667 16.6667 29.0667H28.3333C29.2552 29.0667 30 28.3219 30 27.4V20.7333C30 19.8115 29.2552 19.0667 28.3333 19.0667H23.1927C22.75 19.0667 22.3281 18.8896 22.0156 18.5771L21.3229 17.8844C21.0104 17.5719 20.5885 17.3948 20.1458 17.3948H16.6667C15.7448 17.3948 15 18.1396 15 19.0615V27.4Z" fill="white"/>
</g>
<defs>
<clipPath id="clip0_901_735">
<rect width="30" height="26.6667" fill="white" transform="translate(0 2.4)"/>
</clipPath>
</defs>
</svg>
